<svg width="16" height="16" viewBox="0 0 16 16" fill="none" xmlns="http://www.w3.org/2000/svg">
<path d="M8 1C4.13078 1 1 4.13105 1 8C1 11.8692 4.13105 15 8 15C11.8692 15 15 11.8689 15 8C15 4.13078 11.8689 1 8 1ZM8 13.9063C4.73535 13.9063 2.09375 11.2644 2.09375 8C2.09375 4.73535 4.73557 2.09375 8 2.09375C11.2647 2.09375 13.9063 4.73557 13.9063 8C13.9063 11.2647 11.2644 13.9063 8 13.9063Z" fill="#E8E8E8"/>
<path d="M7.99998 7.31176C7.69794 7.31176 7.45311 7.55659 7.45311 7.85863V11.3803C7.45311 11.6824 7.69794 11.9272 7.99998 11.9272C8.30202 11.9272 8.54686 11.6823 8.54686 11.3803V7.85863C8.54686 7.55659 8.30202 7.31176 7.99998 7.31176Z" fill="#E8E8E8"/>
<path d="M8 6.19094C8.40774 6.19094 8.73828 5.8604 8.73828 5.45266C8.73828 5.04491 8.40774 4.71438 8 4.71438C7.59226 4.71438 7.26172 5.04491 7.26172 5.45266C7.26172 5.8604 7.59226 6.19094 8 6.19094Z" fill="#E8E8E8"/>
<path d="M8 1C4.13078 1 1 4.13105 1 8C1 11.8692 4.13105 15 8 15C11.8692 15 15 11.8689 15 8C15 4.13078 11.8689 1 8 1ZM8 13.9063C4.73535 13.9063 2.09375 11.2644 2.09375 8C2.09375 4.73535 4.73557 2.09375 8 2.09375C11.2647 2.09375 13.9063 4.73557 13.9063 8C13.9063 11.2647 11.2644 13.9063 8 13.9063Z" stroke="#E8E8E8" strokeWidth="0.5"/>
<path d="M7.99998 7.31176C7.69794 7.31176 7.45311 7.55659 7.45311 7.85863V11.3803C7.45311 11.6824 7.69794 11.9272 7.99998 11.9272C8.30202 11.9272 8.54686 11.6823 8.54686 11.3803V7.85863C8.54686 7.55659 8.30202 7.31176 7.99998 7.31176Z" stroke="#E8E8E8" strokeWidth="0.5"/>
<path d="M8 6.19094C8.40774 6.19094 8.73828 5.8604 8.73828 5.45266C8.73828 5.04491 8.40774 4.71438 8 4.71438C7.59226 4.71438 7.26172 5.04491 7.26172 5.45266C7.26172 5.8604 7.59226 6.19094 8 6.19094Z" stroke="#E8E8E8" strokeWidth="0.5"/>
</svg>
