<svg width="186" height="182" viewBox="0 0 186 182" fill="none" xmlns="http://www.w3.org/2000/svg">
<path d="M102.41 18.3525L113.801 6.96143L118.336 11.4966L106.945 22.8877L102.41 18.3525Z" fill="#D6F5E5"/>
<path d="M84.2547 7.89307L59.5947 32.5531H68.6651L88.7899 12.4282L84.2547 7.89307Z" fill="#D6F5E5"/>
<path d="M123.512 37.9956H123.427L123.47 38.0382L123.512 37.9956Z" fill="#D6F5E5"/>
<path d="M63.2228 37.9956H63.1377L63.1802 38.0382L63.2228 37.9956Z" fill="#D6F5E5"/>
<path d="M30.6476 37.9956C22.1353 38.0062 15.2369 44.9029 15.228 53.4152V87.5001L24.2984 79.5001V53.4152C24.3072 44.9029 31.2056 38.0062 39.7179 37.9956H30.6476Z" fill="#D6F5E5"/>
<path d="M142.792 82.0698C137.463 82.0663 132.439 84.5553 129.21 88.7946C125.982 93.034 124.921 98.5399 126.34 103.676C128.389 96.2794 135.116 91.1543 142.792 91.1419H180.558V82.0716L142.792 82.0698Z" fill="#D6F5E5"/>
<path d="M183.279 77.0814H178.495V53.4152C178.482 41.9002 169.15 32.5676 157.633 32.5535H147.088L115.725 1.18991C114.662 0.128753 112.94 0.128753 111.877 1.18991L98.5621 14.5049L86.179 2.12175C85.116 1.05882 83.3941 1.05882 82.3312 2.12175L51.9012 32.5535H30.6479C19.1311 32.5659 9.79853 41.8984 9.78613 53.4152V93.5002L15.2283 88.5002V53.4152C15.2372 44.9029 22.1356 38.0063 30.6479 37.9957H54.0678L54.1104 38.0382L54.1529 37.9957H114.357L114.4 38.0382L114.442 37.9957H157.633C166.145 38.0063 173.042 44.9029 173.052 53.4152V77.0814H142.792C130.4 77.1363 120.382 87.1987 120.382 99.5925C120.382 111.986 130.4 122.047 142.792 122.104H173.052V145.768C173.042 154.28 166.145 161.179 157.633 161.188H95.0006L94.0006 166.63H157.633C169.15 166.617 178.482 157.285 178.495 145.768V122.104H183.279C184.782 122.104 186.001 120.885 186.001 119.382V79.8025C186.001 78.3002 184.782 77.0814 183.279 77.0814ZM113.801 6.9634L139.393 32.5535H116.612L102.41 18.3527L113.801 6.9634ZM59.5951 32.5535L84.2551 7.89346L108.915 32.5535H59.5951ZM180.558 116.661H142.792C133.4 116.612 125.812 108.985 125.812 99.5925C125.812 90.1997 133.4 82.5714 142.792 82.5236H180.558V116.661Z" fill="#35D07F"/>
<path d="M57.1436 82.6665C34.1719 82.6665 15.5493 101.289 15.5493 124.261C15.5493 147.232 34.1719 165.855 57.1436 165.855C80.1153 165.855 98.7378 147.232 98.7378 124.261C98.7113 101.3 80.1046 82.6931 57.1436 82.6665ZM57.1436 160.413C37.1782 160.413 20.9915 144.226 20.9915 124.261C20.9915 104.294 37.1782 88.1087 57.1436 88.1087C77.1107 88.1087 93.2956 104.294 93.2956 124.261C93.2726 144.217 77.1001 160.39 57.1436 160.413Z" fill="#FBCC5C"/>
<path d="M97.7405 84.0869C97.6289 83.9186 97.4854 83.7751 97.3171 83.6635C75.0788 61.6024 39.2102 61.6024 16.9719 83.6635C16.8904 83.722 16.8125 83.7858 16.7381 83.8531C16.6707 83.9275 16.607 84.0054 16.5485 84.0869C-5.51617 106.325 -5.51617 142.196 16.5485 164.434C16.607 164.515 16.669 164.592 16.7381 164.666C16.8107 164.733 16.8886 164.797 16.9684 164.855C39.2084 186.918 75.0788 186.918 97.3171 164.855C97.4836 164.746 97.6271 164.602 97.7387 164.434C119.802 142.196 119.802 106.325 97.7387 84.0869H97.7405ZM105.914 126.981H108.775C108.161 138.8 103.493 150.045 95.5597 158.825L93.5561 156.82C92.4931 155.757 90.7694 155.757 89.7065 156.82C88.6436 157.883 88.6436 159.605 89.7065 160.668L91.7119 162.673C82.9303 170.608 71.6863 175.274 59.8682 175.89V173.028C59.8682 171.525 58.6494 170.307 57.1471 170.307C55.6431 170.307 54.426 171.525 54.426 173.028V175.89C42.608 175.274 31.3622 170.608 22.5824 162.673L24.586 160.668C25.649 159.606 25.649 157.883 24.586 156.82C23.5231 155.757 21.8012 155.757 20.7382 156.82L18.7328 158.825C10.7998 150.045 6.13178 138.8 5.51528 126.981H8.37634C9.88038 126.981 11.0974 125.763 11.0974 124.26C11.0974 122.758 9.88038 121.539 8.37634 121.539H5.51528C6.13001 109.721 10.798 98.4755 18.7311 89.6957L20.7365 91.6993C21.7994 92.7622 23.5213 92.7622 24.5843 91.701C25.6472 90.6381 25.6472 88.9144 24.5843 87.8515L22.5789 85.8478C31.3604 77.9148 42.6063 73.2486 54.4225 72.6321V75.4949C54.4225 76.9972 55.6413 78.216 57.1436 78.216C58.6476 78.216 59.8647 76.9972 59.8647 75.4949V72.6321C71.6827 73.2486 82.9285 77.9166 91.7083 85.8496L89.7047 87.855C88.6418 88.9179 88.6418 90.6399 89.7047 91.7028C90.7676 92.7658 92.4896 92.7658 93.5525 91.7028L95.5579 89.6974C103.491 98.479 108.159 109.723 108.774 121.541H105.914C104.412 121.541 103.193 122.76 103.193 124.262C103.193 125.766 104.412 126.983 105.914 126.983V126.981Z" fill="#FBCC5C"/>
<path d="M133.36 99.2823C133.36 104.884 137.901 109.426 143.502 109.426C149.104 109.426 153.646 104.886 153.646 99.284C153.646 93.6824 149.106 89.1401 143.504 89.1401C137.904 89.1472 133.367 93.6842 133.36 99.2823ZM143.504 94.5823C146.1 94.5823 148.204 96.6869 148.204 99.284C148.204 101.879 146.1 103.984 143.502 103.984C140.907 103.984 138.803 101.879 138.803 99.2823C138.806 96.6887 140.909 94.5859 143.504 94.5823Z" fill="#35D07F"/>
</svg>
