<svg width="128" height="128" viewBox="0 0 128 128" fill="none" xmlns="http://www.w3.org/2000/svg">
<g clip-path="url(#clip0)">
<path d="M43.9907 64.2069C44.0071 51.014 53.8904 39.9207 66.9922 38.3845C57.0527 37.2318 47.3343 41.8859 42.001 50.3523C36.6677 58.8187 36.6677 69.594 42.001 78.0604C47.3343 86.528 57.0527 91.1809 66.9922 90.0282C53.8904 88.4932 44.0071 77.3987 43.9907 64.2069Z" fill="#FDEABD"/>
<path d="M63.9998 34.6201C47.6596 34.6201 34.4141 47.8668 34.4141 64.2069C34.4141 80.547 47.6596 93.7926 63.9998 93.7926C80.3399 93.7926 93.5866 80.547 93.5866 64.2069C93.5679 47.8738 80.3329 34.6388 63.9998 34.6201ZM63.9998 90.2012C49.6436 90.2012 38.0055 78.5631 38.0055 64.2069C38.0055 49.8495 49.6436 38.2114 63.9998 38.2114C78.3571 38.2114 89.9952 49.8495 89.9952 64.2069C89.9789 78.5561 78.3501 90.1848 63.9998 90.2012Z" fill="#FBCC5C"/>
<path d="M92.9166 35.5916C92.8745 35.5331 92.8289 35.4782 92.781 35.4256C92.7284 35.3776 92.6723 35.332 92.615 35.29C76.7741 19.5753 51.2252 19.5753 35.3855 35.29C35.327 35.332 35.2721 35.3776 35.2195 35.4256C35.1704 35.4782 35.1259 35.5331 35.0838 35.5916C19.3692 51.4313 19.3692 76.9814 35.0838 92.8211C35.1259 92.8796 35.1704 92.9345 35.2195 92.9872C35.2721 93.0362 35.327 93.0807 35.3855 93.1228C51.2252 108.837 76.7741 108.837 92.615 93.1228C92.6723 93.0807 92.7284 93.0362 92.781 92.9872C92.8289 92.9345 92.8745 92.8796 92.9166 92.8211C108.631 76.9814 108.631 51.4313 92.9166 35.5916ZM98.8649 66.0026H101.067C100.657 74.5953 97.2621 82.7765 91.4682 89.1362L89.9226 87.5907C89.2177 86.9103 88.0977 86.9197 87.4056 87.6129C86.7124 88.305 86.703 89.425 87.3834 90.1299L88.9289 91.6755C82.5692 97.4694 74.3892 100.863 65.7953 101.274V99.071C65.7953 98.0796 64.9922 97.2753 63.9997 97.2753C63.0083 97.2753 62.204 98.0796 62.204 99.071V101.274C53.6113 100.863 45.429 97.4682 39.0692 91.6743L40.6159 90.1288C41.0823 89.6775 41.2694 89.01 41.1057 88.3822C40.9409 87.7544 40.451 87.2645 39.8233 87.0997C39.1955 86.936 38.5268 87.1231 38.0767 87.5895L36.5323 89.1362C30.7384 82.7765 27.3434 74.5953 26.9331 66.0026H29.1356C30.127 66.0026 30.9313 65.1983 30.9313 64.2069C30.9313 63.2144 30.127 62.4113 29.1356 62.4113H26.9331C27.3434 53.8174 30.7384 45.6362 36.5323 39.2765L38.0778 40.822C38.5291 41.2885 39.1966 41.4755 39.8244 41.3118C40.4522 41.147 40.9421 40.6572 41.1069 40.0294C41.2706 39.4016 41.0835 38.734 40.6171 38.2828L39.0692 36.7384C45.429 30.9445 53.6113 27.5495 62.204 27.1392V29.3417C62.204 30.3343 63.0083 31.1374 63.9997 31.1374C64.9922 31.1374 65.7953 30.3343 65.7953 29.3417V27.1392C74.3892 27.5495 82.5704 30.9445 88.9301 36.7384L87.3846 38.284C86.9181 38.7352 86.7299 39.4028 86.8947 40.0305C87.0596 40.6583 87.5494 41.1482 88.1772 41.313C88.805 41.4779 89.4725 41.2896 89.9238 40.8232L91.4693 39.2777C97.2632 45.6374 100.657 53.8174 101.067 62.4113H98.8649C97.8723 62.4113 97.0692 63.2144 97.0692 64.2069C97.0692 65.1983 97.8723 66.0026 98.8649 66.0026Z" fill="#FBCC5C"/>
<path d="M3.5911 65.0066C3.5911 32.1381 30.3301 5.39798 63.1997 5.39798C69.8798 5.38979 76.5131 6.50626 82.8214 8.70294C83.7543 9.01625 84.7644 8.52057 85.0882 7.59232C85.4121 6.66408 84.9281 5.64699 84.0045 5.31263C60.9492 -2.70135 35.3407 3.26793 18.2057 20.6497C1.06941 38.0303 -4.53395 63.7218 3.80738 86.6601C4.02132 87.2692 4.5474 87.717 5.18337 87.8315C5.81935 87.9461 6.46818 87.7088 6.88203 87.2119C7.29472 86.7151 7.40928 86.0347 7.18132 85.4291C4.79641 78.8846 3.58174 71.9719 3.5911 65.0066Z" fill="#35D07F"/>
<path d="M119.188 39.695C118.272 40.0784 117.841 41.1294 118.223 42.0448C121.265 49.3164 122.824 57.1235 122.808 65.0065C122.808 97.875 96.0682 124.615 63.1998 124.615C50.8392 124.653 38.779 120.811 28.7168 113.632L37.1681 102.162C37.5948 101.582 37.6345 100.805 37.2698 100.185C36.905 99.5655 36.2047 99.2229 35.4916 99.3153L15.6466 101.893C15.1615 101.956 14.7231 102.215 14.432 102.609C14.142 103.003 14.0251 103.498 14.1081 103.98L17.5265 123.699C17.6492 124.407 18.1835 124.974 18.8838 125.139C19.5841 125.305 20.3147 125.036 20.7414 124.457L26.5868 116.523C49.5836 132.849 80.6119 131.967 102.645 114.364C124.678 96.7597 132.385 66.69 121.538 40.6583C121.154 39.7429 120.102 39.3127 119.188 39.695ZM20.3463 118.939L17.9661 105.213L31.781 103.42L24.7876 112.912C24.7806 112.919 24.7747 112.926 24.7689 112.933C24.7584 112.947 24.7502 112.96 24.7408 112.972L20.3463 118.939Z" fill="#35D07F"/>
<path d="M126.205 14.823H113.384V2.00181C113.384 1.01044 112.581 0.206116 111.588 0.206116C110.597 0.206116 109.792 1.01044 109.792 2.00181V14.823H96.2767C95.2841 14.823 94.481 15.6262 94.481 16.6187C94.481 17.6101 95.2841 18.4144 96.2767 18.4144H109.792V31.93C109.792 32.9226 110.597 33.7257 111.588 33.7257C112.581 33.7257 113.384 32.9226 113.384 31.93V18.4144H126.205C127.196 18.4144 128.001 17.6101 128.001 16.6187C128.001 15.6262 127.196 14.823 126.205 14.823Z" fill="#35D07F"/>
</g>
<defs>
<clipPath id="clip0">
<rect width="128" height="128" fill="white"/>
</clipPath>
</defs>
</svg>
