<svg width="128" height="128" viewBox="0 0 128 128" fill="none" xmlns="http://www.w3.org/2000/svg">
<g clip-path="url(#clip0)">
<path d="M118.941 5.61381H87.682C86.0112 2.17987 82.5275 0 78.7084 0C74.8893 0 71.4056 2.17987 69.7348 5.61381H38.4748C35.0307 5.61787 32.24 8.40851 32.236 11.8536V66.8281H35.3579V11.8536C35.361 10.1331 36.7542 8.7388 38.4748 8.73575H68.808C68.7552 9.14937 68.7277 9.56502 68.7267 9.98168V12.6311H54.8497C53.9869 12.6311 53.2888 13.3303 53.2888 14.192V18.4979H46.9859C44.8335 18.5 43.0886 20.2449 43.0855 22.3973V69.4368H46.2075V22.3983C46.2085 21.9684 46.556 21.6209 46.9859 21.6199H53.2888V25.4197C53.2888 26.2825 53.9869 26.9806 54.8497 26.9806H102.568C103.43 26.9806 104.129 26.2825 104.129 25.4197V21.6199H110.431C110.861 21.6199 111.209 21.9684 111.209 22.3973V85.953H103.808C100.364 85.9571 97.5722 88.7477 97.5681 92.1918V99.3951H63.2196V102.517H98.2236C98.4106 102.515 98.5976 102.502 98.7836 102.477C99.3334 102.603 99.9096 102.421 100.287 102.002C100.664 101.799 101.009 101.541 101.312 101.238L113.052 89.4977C113.874 88.6807 114.334 87.5689 114.331 86.4093V22.3983C114.329 20.2449 112.584 18.5 110.431 18.4979H104.129V14.192C104.129 13.3303 103.43 12.6311 102.568 12.6311H88.6901V9.98168C88.6891 9.56502 88.6626 9.14937 88.6098 8.73575H118.941C120.662 8.7388 122.056 10.1331 122.058 11.8536V109.161C122.056 110.883 120.662 112.277 118.941 112.279H57.6373V115.401H118.941C122.385 115.397 125.177 112.606 125.18 109.161V11.8536C125.177 8.40851 122.385 5.61787 118.941 5.61381ZM100.69 97.4449V92.1918C100.693 90.4713 102.087 89.078 103.808 89.075H109.06L100.69 97.4449ZM101.007 15.754V23.8597H56.4107V15.753H70.2877C71.1495 15.753 71.8487 15.0548 71.8487 14.192V9.98168C71.8487 6.19307 74.9198 3.12194 78.7084 3.12194C82.497 3.12194 85.5681 6.19307 85.5681 9.98168V14.192C85.5681 15.0548 86.2673 15.753 87.1291 15.753L101.007 15.754Z" fill="#35D07F"/>
<path d="M102.568 41.7601C103.43 41.7601 104.129 41.0609 104.129 40.1992C104.129 39.3364 103.43 38.6382 102.568 38.6382H100.81C99.9473 38.6382 99.2491 39.3364 99.2491 40.1992C99.2491 41.0609 99.9473 41.7601 100.81 41.7601H102.568Z" fill="#35D07F"/>
<path d="M95.3325 38.6382H69.55C68.6882 38.6382 67.989 39.3364 67.989 40.1992C67.989 41.0609 68.6882 41.7601 69.55 41.7601H95.3325C96.1943 41.7601 96.8935 41.0609 96.8935 40.1992C96.8935 39.3364 96.1943 38.6382 95.3325 38.6382Z" fill="#35D07F"/>
<path d="M54.8498 41.7601H63.9636C64.8264 41.7601 65.5246 41.0609 65.5246 40.1992C65.5246 39.3364 64.8264 38.6382 63.9636 38.6382H54.8498C53.987 38.6382 53.2888 39.3364 53.2888 40.1992C53.2888 41.0609 53.987 41.7601 54.8498 41.7601Z" fill="#35D07F"/>
<path d="M96.0795 52.813C96.0795 53.6748 96.7776 54.374 97.6404 54.374H102.568C103.43 54.374 104.129 53.6748 104.129 52.813C104.129 51.9512 103.43 51.252 102.568 51.252H97.6404C96.7776 51.252 96.0795 51.9512 96.0795 52.813Z" fill="#35D07F"/>
<path d="M93.865 52.813C93.865 51.9512 93.1658 51.252 92.304 51.252H85.5886C84.7258 51.252 84.0276 51.9512 84.0276 52.813C84.0276 53.6748 84.7258 54.374 85.5886 54.374H92.305C93.1668 54.374 93.865 53.6748 93.865 52.813Z" fill="#35D07F"/>
<path d="M54.8498 54.374H80.8986C81.7604 54.374 82.4596 53.6748 82.4596 52.813C82.4596 51.9512 81.7604 51.252 80.8986 51.252H54.8498C53.987 51.252 53.2888 51.9512 53.2888 52.813C53.2888 53.6748 53.987 54.374 54.8498 54.374Z" fill="#35D07F"/>
<path d="M102.568 64.6504H92.0947C91.2329 64.6504 90.5337 65.3496 90.5337 66.2114C90.5337 67.0732 91.2329 67.7723 92.0947 67.7723H102.568C103.43 67.7723 104.129 67.0732 104.129 66.2114C104.129 65.3496 103.43 64.6504 102.568 64.6504Z" fill="#35D07F"/>
<path d="M88.3203 66.2114C88.3203 65.3496 87.6211 64.6504 86.7593 64.6504H54.8498C53.987 64.6504 53.2888 65.3496 53.2888 66.2114C53.2888 67.0732 53.987 67.7723 54.8498 67.7723H86.7593C87.6211 67.7723 88.3203 67.0732 88.3203 66.2114Z" fill="#35D07F"/>
<path d="M102.568 77.0345H73.0225C72.1607 77.0345 71.4615 77.7327 71.4615 78.5955C71.4615 79.4573 72.1607 80.1565 73.0225 80.1565H102.568C103.43 80.1565 104.129 79.4573 104.129 78.5955C104.129 77.7327 103.43 77.0345 102.568 77.0345Z" fill="#35D07F"/>
<path d="M59.6435 77.0345C58.7817 77.0345 58.0825 77.7327 58.0825 78.5955C58.0825 79.4573 58.7817 80.1565 59.6435 80.1565H67.6862C68.548 80.1565 69.2472 79.4573 69.2472 78.5955C69.2472 77.7327 68.548 77.0345 67.6862 77.0345H59.6435Z" fill="#35D07F"/>
<path d="M33.8833 73.9246C21.2969 73.9246 11.0936 84.1279 11.0936 96.7153C11.0936 109.302 21.2969 119.505 33.8833 119.505C46.4707 119.505 56.6739 109.302 56.6739 96.7153C56.6597 84.134 46.4646 73.9388 33.8833 73.9246ZM33.8833 116.386C23.0215 116.386 14.2156 107.58 14.2156 96.7173C14.2156 85.8555 23.0205 77.0496 33.8822 77.0486C44.745 77.0486 53.5509 85.8535 53.552 96.7163C53.5398 107.574 44.741 116.373 33.8833 116.386Z" fill="#FBCC5C"/>
<path d="M56.1101 74.7244C56.0775 74.6787 56.043 74.636 56.0054 74.5954C55.9647 74.5588 55.9221 74.5232 55.8773 74.4917C43.7025 62.4145 24.0664 62.4145 11.8926 74.4917C11.8479 74.5232 11.8042 74.5588 11.7635 74.5954C11.7269 74.636 11.6924 74.6787 11.6599 74.7244C-0.417381 86.8982 -0.417381 106.533 11.6599 118.708C11.6924 118.754 11.7269 118.797 11.7635 118.838C11.8052 118.875 11.8479 118.91 11.8926 118.943C24.0664 131.019 43.7025 131.019 55.8773 118.943C55.9698 118.881 56.0501 118.802 56.1111 118.708C68.1883 106.533 68.1883 86.8982 56.1111 74.7244H56.1101ZM60.5186 98.2773H62.0013C61.6507 104.659 59.1314 110.731 54.8601 115.485L53.8204 114.446C53.2097 113.844 52.228 113.848 51.6223 114.455C51.0166 115.061 51.0125 116.043 51.6131 116.653L52.6517 117.692C47.8977 121.964 41.8265 124.484 35.4444 124.834V123.35C35.4444 122.489 34.7452 121.789 33.8834 121.789C33.0217 121.789 32.3225 122.489 32.3225 123.35V124.834C25.9403 124.484 19.8692 121.964 15.1151 117.692L16.1538 116.653C16.7635 116.044 16.7635 115.056 16.1538 114.446C15.544 113.836 14.5562 113.836 13.9464 114.446L12.9078 115.486C8.63648 110.732 6.11616 104.66 5.76656 98.2783H7.24929C8.11108 98.2783 8.81026 97.5791 8.81026 96.7173C8.81026 95.8555 8.11108 95.1563 7.24929 95.1563H5.76656C6.11616 88.7742 8.63648 82.7031 12.9078 77.949L13.9464 78.9876C14.5562 79.5974 15.544 79.5974 16.1538 78.9876C16.7635 78.3779 16.7635 77.3901 16.1538 76.7803L15.1151 75.7407C19.8702 71.4693 25.9414 68.95 32.3225 68.5994V70.0822C32.3225 70.945 33.0217 71.6431 33.8834 71.6431C34.7462 71.6431 35.4444 70.945 35.4444 70.0822V68.5994C41.8265 68.95 47.8977 71.4693 52.6528 75.7407L51.6131 76.7803C51.2137 77.1736 51.0562 77.7508 51.1995 78.2925C51.3428 78.8352 51.7666 79.258 52.3082 79.4023C52.8509 79.5456 53.4282 79.387 53.8214 78.9876L54.8601 77.949C59.1314 82.7031 61.6507 88.7742 62.0013 95.1563H60.5186C59.6568 95.1563 58.9576 95.8555 58.9576 96.7173C58.9576 97.5791 59.6568 98.2783 60.5186 98.2783V98.2773Z" fill="#FBCC5C"/>
</g>
<defs>
<clipPath id="clip0">
<rect width="128" height="128" fill="white"/>
</clipPath>
</defs>
</svg>
