<svg width="128" height="128" viewBox="0 0 128 128" fill="none" xmlns="http://www.w3.org/2000/svg">
<g clip-path="url(#clip0)">
<path d="M22.1903 30.9787C22.2029 21.5518 29.0738 13.5359 38.3888 12.0816C30.9437 10.9343 23.5191 14.2642 19.4255 20.5872C15.3308 26.9102 15.3308 35.0482 19.4255 41.3712C23.5191 47.6942 30.9437 51.0241 38.3888 49.8757C29.0738 48.4225 22.2029 40.4066 22.1903 30.9787Z" fill="#FDEABD"/>
<path d="M126.247 30.7664H108.713C107.745 30.7664 106.96 31.5517 106.96 32.5198V126.035C106.96 127.003 107.745 127.788 108.713 127.788H126.247C127.215 127.788 128.001 127.003 128.001 126.035V32.5198C128.001 31.5517 127.215 30.7664 126.247 30.7664ZM124.494 124.281H110.467V34.2732H124.494V124.281Z" fill="#35D07F"/>
<path d="M99.5072 60.5742H81.9731C81.0051 60.5742 80.2197 61.3596 80.2197 62.3277V126.035C80.2197 127.003 81.0051 127.788 81.9731 127.788H99.5072C100.475 127.788 101.261 127.003 101.261 126.035V62.3277C101.261 61.3596 100.475 60.5742 99.5072 60.5742ZM97.7538 124.281H83.7265V64.0811H97.7538V124.281Z" fill="#35D07F"/>
<path d="M72.768 77.8162H55.2339C54.2658 77.8162 53.4805 78.6015 53.4805 79.5696V126.035C53.4805 127.003 54.2658 127.788 55.2339 127.788H72.768C73.736 127.788 74.5214 127.003 74.5214 126.035V79.5696C74.5214 78.6015 73.736 77.8162 72.768 77.8162ZM71.0145 124.281H56.9873V81.323H71.0145V124.281Z" fill="#35D07F"/>
<path d="M46.0287 89.2133H28.4946C27.5266 89.2133 26.7412 89.9986 26.7412 90.9667V126.035C26.7412 127.003 27.5266 127.788 28.4946 127.788H46.0287C46.9967 127.788 47.7821 127.003 47.7821 126.035V90.9667C47.7821 89.9986 46.9967 89.2133 46.0287 89.2133ZM44.2753 124.281H30.248V92.7201H44.2753V124.281Z" fill="#35D07F"/>
<path d="M19.2896 103.825H1.75538C0.787341 103.825 0.00195312 104.61 0.00195312 105.578V126.035C0.00195312 127.003 0.787341 127.788 1.75538 127.788H19.2896C20.2577 127.788 21.043 127.003 21.043 126.035V105.578C21.043 104.61 20.2577 103.825 19.2896 103.825ZM17.5362 124.282H3.5088V107.332H17.5362V124.282Z" fill="#35D07F"/>
<path d="M114.281 7.66164C114.029 6.72671 113.067 6.17307 112.132 6.42535L100.847 9.47212C99.9116 9.7244 99.358 10.6867 99.6103 11.6216C99.8625 12.5566 100.825 13.1102 101.76 12.8579L109.219 10.8443C106.384 15.923 98.0772 29.6854 83.9986 44.1407C73.6288 54.7901 62.2168 63.7021 50.0788 70.6302C35.1075 79.218 18.6179 84.8343 1.51766 87.1711C0.60329 87.2955 -0.0576621 88.106 0.00398119 89.0249C0.0656243 89.945 0.829315 90.6596 1.75054 90.6619C1.83045 90.6619 1.91035 90.6562 1.98912 90.6448C19.5357 88.2487 36.4545 82.4862 51.8151 73.6758C64.2385 66.5845 75.9107 57.4705 86.5099 46.5847C100.656 32.0586 108.969 18.4743 112.071 12.9401L113.787 19.2951C113.946 19.9047 114.419 20.3818 115.028 20.5451C115.636 20.7094 116.285 20.5336 116.729 20.0862C117.172 19.6387 117.341 18.988 117.172 18.3818L114.281 7.66164Z" fill="#35D07F"/>
<path d="M35.3835 53.6063C47.8799 53.6063 58.01 43.4762 58.01 30.9786C58.01 18.4822 47.8799 8.35217 35.3835 8.35217C22.8859 8.35217 12.7559 18.4822 12.7559 30.9786C12.7696 43.4694 22.8927 53.5926 35.3835 53.6063ZM35.3835 11.859C45.9427 11.859 54.5031 20.4194 54.5031 30.9786C54.5031 41.539 45.9427 50.0994 35.3835 50.0994C24.8231 50.0994 16.2627 41.539 16.2627 30.9786C16.2741 20.424 24.8277 11.8704 35.3835 11.859Z" fill="#FBCC5C"/>
<path d="M13.3754 52.757C13.4108 52.7992 13.4393 52.8449 13.4793 52.8826C13.5181 52.9214 13.5626 52.9511 13.6048 52.9865C25.6606 64.9452 45.1045 64.9452 57.1592 52.9865C57.2516 52.926 57.3293 52.8472 57.3898 52.7559C69.3485 40.7001 69.3485 21.2573 57.3898 9.20266C57.3544 9.16042 57.3258 9.11476 57.2859 9.07481C57.2459 9.03485 57.2003 9.00517 57.158 8.96979C45.1022 -2.98785 25.6595 -2.98785 13.6048 8.96979C13.5626 9.00517 13.5169 9.03485 13.4781 9.07367C13.4416 9.11476 13.4062 9.157 13.3742 9.20038C1.41432 21.2562 1.41432 40.7001 13.3742 52.7559L13.3754 52.757ZM9.1962 29.2253H7.97018C8.35374 23.1614 10.7453 17.3978 14.7681 12.8442L15.6254 13.7015C16.3103 14.3864 17.421 14.3864 18.1059 13.7015C18.7908 13.0177 18.7908 11.907 18.1059 11.222L17.2475 10.3647C21.8022 6.34196 27.5659 3.95043 33.6297 3.56687V4.79175C33.6297 5.76091 34.414 6.54515 35.3831 6.54515C36.3512 6.54515 37.1365 5.76091 37.1365 4.79175V3.56687C43.2004 3.95043 48.9629 6.34196 53.5177 10.3647L52.6604 11.222C51.9754 11.907 51.9754 13.0177 52.6604 13.7015C53.3441 14.3864 54.4549 14.3864 55.1398 13.7015L55.9971 12.8442C60.0199 17.3989 62.4114 23.1614 62.795 29.2253H61.5701C60.6009 29.2253 59.8167 30.0107 59.8167 30.9787C59.8167 31.9479 60.6009 32.7321 61.5701 32.7321H62.795C62.4114 38.796 60.0199 44.5596 55.9971 49.1143L55.1398 48.2559C54.4549 47.5721 53.3441 47.5721 52.6604 48.2559C51.9754 48.9408 51.9754 50.0516 52.6604 50.7365L53.5177 51.5938C48.9641 55.6166 43.2004 58.0081 37.1365 58.3916V57.1668C37.1365 56.1976 36.3512 55.4134 35.3831 55.4134C34.414 55.4134 33.6297 56.1976 33.6297 57.1668V58.3916C27.5647 58.0081 21.8022 55.6166 17.2475 51.5938L18.1059 50.7365C18.7908 50.0516 18.7908 48.9408 18.1059 48.2559C17.421 47.5721 16.3103 47.5721 15.6254 48.2559L14.7681 49.1143C10.7453 44.5607 8.35374 38.7971 7.97018 32.7321H9.19506C10.1642 32.7321 10.9485 31.9479 10.9485 30.9787C10.9485 30.0107 10.1642 29.2253 9.19506 29.2253H9.1962Z" fill="#FBCC5C"/>
</g>
<defs>
<clipPath id="clip0">
<rect width="128" height="128" fill="white"/>
</clipPath>
</defs>
</svg>
