<svg width="32" height="32" viewBox="0 0 32 32" fill="none" xmlns="http://www.w3.org/2000/svg">
<g clip-path="url(#clip0)">
<path d="M31.004 3.89369L28.104 0.993563C26.7791 -0.3315 24.6235 -0.330875 23.2985 0.993563L22.1635 2.12862L20.838 3.45431L1.72414 22.5696C1.59039 22.7033 1.49977 22.8752 1.46539 23.0614L1.37539 23.5458L0.0154526 30.8918C-0.0407974 31.1949 0.0560776 31.5068 0.274828 31.725C0.451703 31.9025 0.691078 32 0.937328 32C0.994203 32 1.05108 31.995 1.10795 31.9844L8.45339 30.6243L8.93777 30.5343C9.12401 30.4999 9.29589 30.4093 9.42964 30.2756L28.5435 11.1603L29.869 9.83463L31.004 8.69956C32.3312 7.37225 32.3322 5.222 31.004 3.89369Z" fill="white"/>
<path d="M29.5554 2.44467L0.275146 31.7249C0.452021 31.9024 0.691396 31.9999 0.937646 31.9999C0.994521 31.9999 1.0514 31.9949 1.10827 31.9843L8.45371 30.6242L8.93808 30.5342C9.12433 30.4999 9.29621 30.4092 9.42996 30.2755L28.5438 11.1602L29.8693 9.83455L31.0043 8.69949C32.3315 7.37217 32.3325 5.22199 31.0043 3.89367L29.5554 2.44467Z" fill="#D6F5E5"/>
<path d="M28.5442 11.1612L29.8699 9.83554L22.1643 2.13001L20.8387 3.45565L28.5442 11.1612Z" fill="#85E2B2"/>
<path d="M10.093 29.6124L9.42992 30.2755C9.29617 30.4092 9.1243 30.4999 8.93805 30.5342L8.45367 30.6242L1.37573 23.5459L1.46573 23.0615C1.50011 22.8752 1.59073 22.7034 1.72448 22.5696L2.38761 21.9065L10.093 29.6124Z" fill="#85E2B2"/>
<path d="M29.868 9.83525L26.0161 5.98337L24.6905 7.309L28.5424 11.1609L29.868 9.83525Z" fill="#85E2B2"/>
<path d="M4.91479 27.0853L8.45361 30.6243L8.93798 30.5343C9.12423 30.5 9.29611 30.4093 9.42986 30.2756L10.093 29.6125L6.24048 25.7596L4.91479 27.0853Z" fill="#85E2B2"/>
</g>
<defs>
<clipPath id="clip0">
<rect width="32" height="32" fill="white"/>
</clipPath>
</defs>
</svg>
