<svg width="32" height="32" viewBox="0 0 32 32" fill="none" xmlns="http://www.w3.org/2000/svg">
<g clip-path="url(#clip0)">
<path d="M30.0857 15.1199L25.9893 12.1219L25.8056 10.6629C25.4488 7.82739 24.1385 5.34052 22.2377 3.48349C22.1734 3.42039 22.1084 3.3579 22.0428 3.29667C19.8371 1.23407 16.8841 -0.00249558 13.7155 3.78161e-06C13.2138 0.000628623 12.7058 0.0318707 12.1946 0.0962293C8.96547 0.502376 6.08808 2.14196 4.09233 4.71318C2.09659 7.28378 1.22119 10.478 1.62796 13.7071C2.15033 17.858 4.76341 21.4308 8.51933 23.2047L7.36775 28.9758C7.26715 29.4806 7.5927 29.9724 8.09694 30.0767L13.7155 31.2427L17.274 31.9806C17.3371 31.9938 17.4008 32 17.4646 32C17.6533 32 17.8388 31.9431 17.9969 31.8338C18.2075 31.6888 18.35 31.4633 18.39 31.2102L19.2016 26.1265H26.8372C27.1096 26.1265 27.3683 26.0078 27.5464 25.8016C27.7245 25.5954 27.8038 25.3223 27.7644 25.053L26.8284 18.6871L30.0314 16.6695C30.2944 16.5039 30.4581 16.2196 30.4688 15.9091C30.4794 15.5992 30.3363 15.3036 30.0857 15.1199Z" fill="white"/>
<path d="M30.4688 15.9091C30.4582 16.2196 30.2945 16.5039 30.0314 16.6695L26.8285 18.6871L27.7645 25.053C27.8039 25.3223 27.7245 25.5954 27.5464 25.8016C27.3684 26.0078 27.1097 26.1265 26.8372 26.1265H19.2017L18.39 31.2102C18.35 31.4633 18.2076 31.6888 17.997 31.8338C17.8389 31.9431 17.6533 32 17.4646 32C17.4009 32 17.3372 31.9938 17.274 31.9806L13.7156 31.2427V3.78161e-06C16.8841 -0.00249558 19.8371 1.23407 22.0428 3.29667C22.1084 3.3579 22.1734 3.42039 22.2378 3.48349C24.1386 5.34052 25.4488 7.82739 25.8056 10.6629L25.9893 12.1219L30.0858 15.1199C30.3364 15.3036 30.4794 15.5992 30.4688 15.9091Z" fill="#D6F5E5"/>
<path d="M13.7156 14.8793C13.198 14.8793 12.7783 14.4596 12.7783 13.942C12.7783 12.6142 13.5704 11.4262 14.7961 10.9154C15.8479 10.4772 16.5274 9.45779 16.5274 8.31845C16.5274 6.76803 15.266 5.50666 13.7156 5.50666C12.1652 5.50666 10.9038 6.76803 10.9038 8.31845C10.9038 8.83607 10.4842 9.25571 9.96656 9.25571C9.44894 9.25571 9.0293 8.83607 9.0293 8.31845C9.0293 5.73442 11.1316 3.63214 13.7156 3.63214C16.2996 3.63214 18.4019 5.73442 18.4019 8.31845C18.4019 10.2169 17.2696 11.9154 15.5171 12.6457C14.9922 12.8644 14.6529 13.3733 14.6529 13.942C14.6529 14.4596 14.2332 14.8793 13.7156 14.8793Z" fill="#85E2B2"/>
<path d="M13.7156 3.63214V5.50666C15.266 5.50666 16.5274 6.76803 16.5274 8.31845C16.5274 9.45779 15.8478 10.4772 14.7961 10.9154C14.3817 11.0881 14.0171 11.3384 13.7156 11.6452V14.8793C14.2333 14.8793 14.6529 14.4596 14.6529 13.942C14.6529 13.3733 14.9922 12.8645 15.5172 12.6457C17.2696 11.9154 18.4019 10.2168 18.4019 8.31845C18.4019 5.73442 16.2996 3.63214 13.7156 3.63214Z" fill="#85E2B2"/>
<path d="M13.7153 18.6197C14.233 18.6197 14.6526 18.2 14.6526 17.6824C14.6526 17.1647 14.233 16.7451 13.7153 16.7451C13.1977 16.7451 12.7781 17.1647 12.7781 17.6824C12.7781 18.2 13.1977 18.6197 13.7153 18.6197Z" fill="#85E2B2"/>
<path d="M14.6528 17.6824C14.6528 17.1648 14.2332 16.7451 13.7156 16.7451V18.6197C14.2333 18.6197 14.6528 18.2 14.6528 17.6824Z" fill="#85E2B2"/>
</g>
<defs>
<clipPath id="clip0">
<rect width="32" height="32" fill="white"/>
</clipPath>
</defs>
</svg>
