<svg width="32" height="32" viewBox="0 0 32 32" fill="none" xmlns="http://www.w3.org/2000/svg">
<path d="M15.8899 16.25C20.3701 16.25 24.0149 12.6051 24.0149 8.125C24.0149 3.64488 20.3701 0 15.8899 0C11.4098 0 7.76489 3.64488 7.76489 8.125C7.76489 12.6051 11.4098 16.25 15.8899 16.25ZM15.8899 1.25C19.6808 1.25 22.7649 4.33413 22.7649 8.125C22.7649 11.9159 19.6808 15 15.8899 15C12.099 15 9.01489 11.9159 9.01489 8.125C9.01489 4.33413 12.099 1.25 15.8899 1.25Z" fill="#2aa665"/>
<path d="M8.38989 26.8125C8.0447 26.8125 7.76489 27.0923 7.76489 27.4375V31.375C7.76489 31.7202 8.0447 32 8.38989 32H23.3899C23.735 32 24.0149 31.7202 24.0149 31.375V28.0625H27.1399C27.485 28.0625 27.7649 27.7827 27.7649 27.4375V23.5C27.7649 23.1548 27.485 22.875 27.1399 22.875H24.0149V19.5625C24.0149 19.2173 23.735 18.9375 23.3899 18.9375H8.38989C8.0447 18.9375 7.76489 19.2173 7.76489 19.5625V23.5C7.76489 23.8452 8.0447 24.125 8.38989 24.125H11.5149V26.8125H8.38989ZM26.5149 24.125V26.8125H12.7649V24.125H26.5149ZM9.01489 22.875V20.1875H22.7649V22.875C22.4494 22.875 9.12283 22.875 9.01489 22.875ZM22.7649 28.0625V30.75H9.01489V28.0625H22.7649Z" fill="#2aa665"/>
</svg>
