<svg width="32" height="32" viewBox="0 0 32 32" fill="none" xmlns="http://www.w3.org/2000/svg">
<path d="M23.4795 7.70679C23.4795 9.82471 22.72 11.658 21.2217 13.1565C19.7234 14.6548 17.8899 15.4143 15.772 15.4143H15.7683C13.6531 15.4136 11.8208 14.6541 10.3225 13.1565C8.82397 11.658 8.0647 9.82471 8.0647 7.70679C8.0647 5.5896 8.82397 3.7561 10.3225 2.25781C11.8201 0.76001 13.6523 0.000732425 15.7683 0H15.772C17.8892 0 19.7227 0.759521 21.2217 2.25781C22.72 3.7561 23.4795 5.5896 23.4795 7.70679Z" fill="white"/>
<path d="M29.323 26.4966C29.323 28.1675 28.7915 29.5203 27.7446 30.5166C26.71 31.5012 25.3416 32 23.6777 32H8.26953C6.60571 32 5.2373 31.5012 4.20337 30.5166C3.15576 29.5195 2.625 28.167 2.625 26.4966C2.625 25.854 2.64624 25.2183 2.68872 24.6069C2.73193 23.9819 2.81934 23.3018 2.94824 22.5842C3.07812 21.8608 3.24512 21.177 3.44507 20.552C3.65259 19.905 3.93335 19.2668 4.28076 18.6555C4.6416 18.021 5.06543 17.4683 5.54053 17.0132C6.03857 16.5369 6.64746 16.1543 7.35132 15.8755C8.05273 15.5981 8.83032 15.4575 9.66235 15.4575C9.98877 15.4575 10.3049 15.5911 10.9143 15.988C11.2957 16.2368 11.7351 16.52 12.2202 16.8301C12.6392 17.0972 13.2065 17.3477 13.908 17.574C14.5244 17.7734 15.1501 17.8848 15.7683 17.9041C15.8364 17.9065 15.9045 17.9077 15.9727 17.9077C16.6592 17.9077 17.3535 17.7952 18.0381 17.574C18.7395 17.3477 19.3076 17.0972 19.7263 16.8301C20.2166 16.5168 20.656 16.2339 21.0317 15.9888C21.6416 15.5911 21.9573 15.4575 22.2844 15.4575C23.1157 15.4575 23.8933 15.5981 24.5952 15.8755C25.2991 16.1543 25.908 16.5376 26.4055 17.0132C26.8813 17.4683 27.3052 18.021 27.6658 18.6555C28.0134 19.2673 28.2947 19.905 28.5015 20.5513C28.7017 21.177 28.8691 21.8608 28.999 22.5847C29.1272 23.303 29.2148 23.9832 29.2578 24.6064C29.301 25.2158 29.3223 25.8516 29.323 26.4966Z" fill="white"/>
<path d="M15.772 15.4143H15.7683V0H15.772C17.8892 0 19.7227 0.759521 21.2217 2.25781C22.72 3.7561 23.4795 5.5896 23.4795 7.70679C23.4795 9.82471 22.72 11.658 21.2217 13.1565C19.7234 14.6548 17.8899 15.4143 15.772 15.4143Z" fill="#D6F5E5"/>
<path d="M29.323 26.4966C29.323 28.1675 28.7915 29.5203 27.7446 30.5166C26.71 31.5012 25.3416 32 23.6777 32H15.7683V17.9041C15.8364 17.9065 15.9045 17.9077 15.9727 17.9077C16.6592 17.9077 17.3535 17.7952 18.0381 17.574C18.7395 17.3477 19.3076 17.0972 19.7263 16.8301C20.2166 16.5168 20.656 16.2339 21.0317 15.9888C21.6416 15.5911 21.9573 15.4575 22.2844 15.4575C23.1157 15.4575 23.8933 15.5981 24.5952 15.8755C25.2991 16.1543 25.908 16.5376 26.4055 17.0132C26.8813 17.4683 27.3052 18.021 27.6658 18.6555C28.0134 19.2673 28.2947 19.905 28.5015 20.5513C28.7017 21.177 28.8691 21.8608 28.999 22.5847C29.1272 23.303 29.2148 23.9832 29.2578 24.6064C29.301 25.2158 29.3223 25.8516 29.323 26.4966Z" fill="#D6F5E5"/>
</svg>
