<svg width="20" height="20" viewBox="0 0 20 20" fill="none" xmlns="http://www.w3.org/2000/svg">
<g clip-path="url(#clip0)">
<path d="M9.9998 19.167L0.833008 14.167L9.9998 9.16699L19.1666 14.167L9.9998 19.167Z" fill="#85E2B2"/>
<path d="M9.9998 15L0.833008 10L9.9998 5L19.1666 10L9.9998 15Z" fill="#85E2B2"/>
<path d="M9.9998 10.8335L0.833008 5.8335L9.9998 0.833496L19.1666 5.8335L9.9998 10.8335Z" fill="#D6F5E5"/>
<path d="M19.9996 9.99997C19.9996 9.85025 19.9592 9.7033 19.8828 9.57456C19.8063 9.44581 19.6966 9.34004 19.5652 9.26833L17.0871 7.91677L19.5652 6.56521C19.6967 6.49356 19.8065 6.38779 19.8829 6.25904C19.9594 6.13029 19.9998 5.98331 19.9998 5.83356C19.9998 5.68382 19.9594 5.53684 19.8829 5.40809C19.8065 5.27934 19.6967 5.17357 19.5652 5.10192L10.3984 0.101924C10.276 0.0350484 10.1388 0 9.99939 0C9.85994 0 9.72273 0.0350484 9.60036 0.101924L0.433567 5.10192C0.302073 5.17357 0.192319 5.27934 0.11585 5.40809C0.0393806 5.53684 -0.000976562 5.68382 -0.000976562 5.83356C-0.000976562 5.98331 0.0393806 6.13029 0.11585 6.25904C0.192319 6.38779 0.302073 6.49356 0.433567 6.56521L2.91169 7.91677L0.433567 9.26833C0.302073 9.33998 0.192319 9.44574 0.11585 9.57449C0.0393806 9.70324 -0.000976562 9.85022 -0.000976562 9.99997C-0.000976562 10.1497 0.0393806 10.2967 0.11585 10.4255C0.192319 10.5542 0.302073 10.66 0.433567 10.7316L2.91169 12.0832L0.433567 13.4347C0.302073 13.5064 0.192319 13.6122 0.11585 13.7409C0.0393806 13.8697 -0.000976562 14.0166 -0.000976562 14.1664C-0.000976562 14.3161 0.0393806 14.4631 0.11585 14.5919C0.192319 14.7206 0.302073 14.8264 0.433567 14.898L9.60036 19.898C9.72276 19.9648 9.85996 19.9998 9.99939 19.9998C10.1388 19.9998 10.276 19.9648 10.3984 19.898L19.5652 14.898C19.6967 14.8264 19.8065 14.7206 19.8829 14.5919C19.9594 14.4631 19.9998 14.3161 19.9998 14.1664C19.9998 14.0166 19.9594 13.8697 19.8829 13.7409C19.8065 13.6122 19.6967 13.5064 19.5652 13.4347L17.0871 12.0832L19.5652 10.7316C19.6966 10.6599 19.8063 10.5541 19.8828 10.4254C19.9592 10.2966 19.9996 10.1497 19.9996 9.99997ZM9.99958 1.78278L17.4258 5.83356L9.99958 9.88278L2.57341 5.83356L9.99958 1.78278ZM17.4258 14.1656L9.99958 18.2176L2.57341 14.1668L4.65271 13.034L9.60075 15.7328C9.72315 15.7996 9.86035 15.8345 9.99978 15.8345C10.1392 15.8345 10.2764 15.7996 10.3988 15.7328L15.3468 13.034L17.4258 14.1656ZM9.99958 14.0508L2.57341 9.99997L4.65271 8.86716L9.60075 11.566C9.72316 11.6327 9.86036 11.6677 9.99978 11.6677C10.1392 11.6677 10.2764 11.6327 10.3988 11.566L15.3468 8.86716L17.4261 9.99997L9.99958 14.0508Z" fill="white"/>
</g>
<defs>
<clipPath id="clip0">
<rect width="20" height="20" fill="white"/>
</clipPath>
</defs>
</svg>
