<svg width="32" height="32" viewBox="0 0 32 32" fill="none" xmlns="http://www.w3.org/2000/svg">
<path d="M27.3125 16.7595H24.1801C23.7538 16.7595 23.3411 16.8177 22.9483 16.9249C22.1734 15.4016 20.5914 14.355 18.7684 14.355H13.2316C11.4086 14.355 9.82663 15.4016 9.05175 16.9249C8.65894 16.8177 8.24619 16.7595 7.81988 16.7595H4.6875C2.10281 16.7595 0 18.8623 0 21.447V26.4544C0 28.0052 1.26169 29.2669 2.8125 29.2669H29.1875C30.7383 29.2669 32 28.0052 32 26.4544V21.447C32 18.8623 29.8972 16.7595 27.3125 16.7595ZM8.54406 19.0426V27.3919H2.8125C2.29556 27.3919 1.875 26.9714 1.875 26.4544V21.447C1.875 19.8962 3.13669 18.6345 4.6875 18.6345H7.81988C8.07438 18.6345 8.32081 18.6691 8.55544 18.7328C8.54869 18.8354 8.54406 18.9385 8.54406 19.0426ZM21.5809 27.3919H10.4191V19.0425C10.4191 17.4917 11.6808 16.23 13.2316 16.23H18.7684C20.3193 16.23 21.5809 17.4917 21.5809 19.0425V27.3919ZM30.125 26.4544C30.125 26.9714 29.7044 27.3919 29.1875 27.3919H23.4559V19.0425C23.4559 18.9384 23.4513 18.8352 23.4446 18.7327C23.6792 18.6691 23.9256 18.6345 24.1801 18.6345H27.3125C28.8633 18.6345 30.125 19.8962 30.125 21.447V26.4544Z" fill="#2aa665"/>
<path d="M6.25375 7.90649C3.95694 7.90649 2.08838 9.77506 2.08838 12.0719C2.08832 14.3687 3.95694 16.2372 6.25375 16.2372C8.5505 16.2372 10.4191 14.3687 10.4191 12.0719C10.4191 9.77506 8.55057 7.90649 6.25375 7.90649ZM6.25369 14.3622C4.99075 14.3622 3.96332 13.3348 3.96332 12.0719C3.96332 10.8089 4.99075 9.78149 6.25369 9.78149C7.51663 9.78149 8.54407 10.8089 8.54407 12.0719C8.54407 13.3348 7.51663 14.3622 6.25369 14.3622Z" fill="#2aa665"/>
<path d="M16.0002 2.733C12.9317 2.733 10.4353 5.22938 10.4353 8.29788C10.4353 11.3664 12.9317 13.8628 16.0002 13.8628C19.0687 13.8628 21.5651 11.3664 21.5651 8.29788C21.5651 5.22944 19.0687 2.733 16.0002 2.733ZM16.0002 11.9878C13.9656 11.9878 12.3103 10.3325 12.3103 8.29788C12.3103 6.26331 13.9656 4.608 16.0002 4.608C18.0348 4.608 19.6901 6.26325 19.6901 8.29788C19.6901 10.3325 18.0348 11.9878 16.0002 11.9878Z" fill="#2aa665"/>
<path d="M25.7462 7.90649C23.4494 7.90649 21.5808 9.77506 21.5808 12.0719C21.5809 14.3687 23.4494 16.2372 25.7462 16.2372C28.043 16.2372 29.9116 14.3687 29.9116 12.0719C29.9116 9.77506 28.043 7.90649 25.7462 7.90649ZM25.7462 14.3622C24.4833 14.3622 23.4558 13.3348 23.4558 12.0719C23.4559 10.8089 24.4833 9.78149 25.7462 9.78149C27.0091 9.78149 28.0366 10.8089 28.0366 12.0719C28.0366 13.3348 27.0091 14.3622 25.7462 14.3622Z" fill="#2aa665"/>
</svg>
