<svg width="32" height="32" viewBox="0 0 32 32" fill="none" xmlns="http://www.w3.org/2000/svg">
<g clip-path="url(#clip0)">
<path d="M8.5 27.4375V31.375H23.5V27.4375C23.1383 27.4375 9.72794 27.4375 8.5 27.4375Z" fill="white"/>
<path d="M8.5 19.5625V23.5H23.5V19.5625H8.5Z" fill="white"/>
<path d="M9.77745 15.0226C12.9016 18.1468 18.2202 17.8935 21.6568 14.4569C25.0935 11.0203 25.3467 5.70167 22.2225 2.57748C19.0983 -0.546716 13.7797 -0.29345 10.3431 3.14316C6.90652 6.57978 6.65325 11.8984 9.77745 15.0226Z" fill="#D6F5E5"/>
<path d="M12.25 23.5H27.25V27.4375H12.25V23.5Z" fill="#D6F5E5"/>
<path d="M3.125 12.0625L0.625 15.8125H1.875V19.5625H4.375V15.8125H5.625L3.125 12.0625Z" fill="white"/>
<path d="M28.875 12.0625L26.375 15.8125H27.625V19.5625H30.125V15.8125H31.375L28.875 12.0625Z" fill="white"/>
<path d="M9.77672 15.0226C12.8959 18.1418 18.225 17.888 21.6561 14.4569C25.0872 11.0258 25.341 5.69671 22.2218 2.57748C19.1026 -0.541712 13.7735 -0.287945 10.3424 3.14316C6.91129 6.57427 6.65753 11.9034 9.77672 15.0226ZM21.2645 3.53479C23.9038 6.1741 23.6891 10.6833 20.7858 13.5866C17.8826 16.4898 13.3733 16.7046 10.734 14.0652C8.09472 11.4259 8.30944 6.91669 11.2127 4.01345C14.1159 1.1102 18.6252 0.895478 21.2645 3.53479Z" fill="#D6F5E5"/>
<path d="M8.5 26.8125C8.15481 26.8125 7.875 27.0923 7.875 27.4375V31.375C7.875 31.7202 8.15481 32 8.5 32H23.5C23.8451 32 24.125 31.7202 24.125 31.375V28.0625H27.25C27.5951 28.0625 27.875 27.7827 27.875 27.4375V23.5C27.875 23.1548 27.5951 22.875 27.25 22.875H24.125V19.5625C24.125 19.2173 23.8451 18.9375 23.5 18.9375H8.5C8.15481 18.9375 7.875 19.2173 7.875 19.5625V23.5C7.875 23.8452 8.15481 24.125 8.5 24.125H11.625V26.8125H8.5ZM22.875 30.75H9.125V28.0625H22.875V30.75ZM26.625 26.8125H12.875V24.125H26.625V26.8125ZM9.125 20.1875H22.875V22.875C22.5596 22.875 9.23294 22.875 9.125 22.875V20.1875Z" fill="#D6F5E5"/>
<path d="M3.125 11.4375C2.916 11.4375 2.72087 11.5419 2.605 11.7158L0.104998 15.4658C-0.0228773 15.6576 -0.0348148 15.9042 0.0739352 16.1074C0.182685 16.3106 0.394498 16.4375 0.624998 16.4375H1.25V19.5625C1.25 19.9077 1.52981 20.1875 1.875 20.1875H4.375C4.72019 20.1875 5 19.9077 5 19.5625V16.4375H5.625C5.8555 16.4375 6.06731 16.3106 6.17606 16.1074C6.28481 15.9042 6.27287 15.6576 6.145 15.4658L3.645 11.7158C3.52912 11.5419 3.334 11.4375 3.125 11.4375ZM4.375 15.1875C4.02981 15.1875 3.75 15.4673 3.75 15.8125V18.9375H2.5V15.8125C2.5 15.4673 2.22019 15.1875 1.875 15.1875H1.79281L3.125 13.1892L4.45719 15.1875H4.375Z" fill="#D6F5E5"/>
<path d="M30.75 19.5625V16.4375H31.375C31.6055 16.4375 31.8172 16.3106 31.926 16.1074C32.0347 15.9042 32.0228 15.6576 31.895 15.4658L29.395 11.7158C29.2791 11.5419 29.0839 11.4375 28.875 11.4375C28.666 11.4375 28.4708 11.5419 28.355 11.7158L25.855 15.4658C25.7271 15.6576 25.7152 15.9042 25.824 16.1074C25.9327 16.3106 26.1445 16.4375 26.375 16.4375H27V19.5625C27 19.9077 27.2798 20.1875 27.625 20.1875H30.125C30.4702 20.1875 30.75 19.9077 30.75 19.5625ZM29.5 15.8125V18.9375H28.25V15.8125C28.25 15.4673 27.9701 15.1875 27.625 15.1875H27.5428L28.875 13.1892L30.2072 15.1875H30.125C29.7798 15.1875 29.5 15.4673 29.5 15.8125Z" fill="#D6F5E5"/>
</g>
<defs>
<clipPath id="clip0">
<rect width="32" height="32" fill="white"/>
</clipPath>
</defs>
</svg>
