<svg width="32" height="32" viewBox="0 0 32 32" fill="none" xmlns="http://www.w3.org/2000/svg">
<path d="M26.3125 15.2863V10.3125C26.3125 4.62619 21.6863 0 16 0C10.3137 0 5.6875 4.62619 5.6875 10.3125V15.2863C4.59631 15.6733 3.8125 16.7153 3.8125 17.9375V29.1875C3.8125 30.7383 5.07419 32 6.625 32H25.375C26.9258 32 28.1875 30.7383 28.1875 29.1875V17.9375C28.1875 16.7153 27.4037 15.6733 26.3125 15.2863ZM7.5625 10.3125C7.5625 5.66006 11.3476 1.875 16 1.875C20.6524 1.875 24.4375 5.66006 24.4375 10.3125V15.125H22.5625V10.3125C22.5625 6.69394 19.6186 3.75 16 3.75C12.3814 3.75 9.4375 6.69394 9.4375 10.3125V15.125H7.5625V10.3125ZM20.6875 10.3125V15.125H11.3125V10.3125C11.3125 7.72781 13.4153 5.625 16 5.625C18.5847 5.625 20.6875 7.72781 20.6875 10.3125ZM26.3125 29.1875C26.3125 29.7044 25.8919 30.125 25.375 30.125H6.625C6.10806 30.125 5.6875 29.7044 5.6875 29.1875V17.9375C5.6875 17.4206 6.10806 17 6.625 17H25.375C25.8919 17 26.3125 17.4206 26.3125 17.9375V29.1875Z" fill="#2aa665"/>
<path d="M16 18.875C14.4492 18.875 13.1875 20.1367 13.1875 21.6875C13.1875 22.9097 13.9713 23.9518 15.0625 24.3388V27.3125C15.0625 27.8302 15.4822 28.25 16 28.25C16.5178 28.25 16.9375 27.8302 16.9375 27.3125V24.3388C18.0287 23.9518 18.8125 22.9097 18.8125 21.6875C18.8125 20.1367 17.5508 18.875 16 18.875ZM16 22.625C15.4831 22.625 15.0625 22.2044 15.0625 21.6875C15.0625 21.1706 15.4831 20.75 16 20.75C16.5169 20.75 16.9375 21.1706 16.9375 21.6875C16.9375 22.2044 16.5169 22.625 16 22.625Z" fill="#2aa665"/>
</svg>
