<svg width="20" height="20" viewBox="0 0 20 20" fill="none" xmlns="http://www.w3.org/2000/svg">
<path d="M3.20631 8.13351L0.791961 6.72771C0.791894 6.72767 0.791828 6.72763 0.791762 6.7276C0.710767 6.68079 0.643537 6.61333 0.596811 6.53207L0.596802 6.53205C0.550054 6.45071 0.525461 6.35846 0.525461 6.26454C0.525461 6.17067 0.55005 6.07837 0.596813 5.99705M3.20631 8.13351L0.683502 13.9614C0.721517 14.0275 0.776184 14.0823 0.841956 14.1203L0.791654 14.2067L0.791784 14.2068C0.791843 14.2068 0.791901 14.2069 0.79196 14.2069L9.73643 19.4126L9.73638 19.4127L9.73998 19.4146C9.8196 19.4567 9.90865 19.4774 9.99857 19.4748C10.0915 19.4738 10.1827 19.4489 10.2633 19.4024L10.2636 19.4022L19.2084 14.1963L19.2093 14.1958C19.2892 14.1482 19.3553 14.0805 19.4012 13.9994L19.4012 13.9994C19.4471 13.9183 19.4712 13.8266 19.4712 13.7333C19.4712 13.64 19.4471 13.5484 19.4012 13.4673L19.4012 13.4672C19.3553 13.3862 19.2892 13.3184 19.2093 13.2708L19.0581 13.1808V13.1933L16.7904 11.8747L19.2085 10.4654L19.2088 10.4652C19.2889 10.4181 19.3553 10.3506 19.4013 10.2698C19.4474 10.1889 19.4716 10.0973 19.4716 10.0041C19.4716 9.91098 19.4474 9.81937 19.4013 9.73848C19.3552 9.6576 19.2889 9.59022 19.2088 9.5431L19.2085 9.54294L16.7936 8.13354L19.1928 6.73557C19.2808 6.68915 19.3537 6.61833 19.4029 6.53155C19.4379 6.47101 19.4608 6.40415 19.4702 6.33479C19.4795 6.26542 19.4753 6.19485 19.4576 6.12713L19.3608 6.15237L19.4576 6.12712C19.4399 6.05939 19.4092 5.9958 19.3671 5.93999C19.325 5.8842 19.2725 5.83719 19.2122 5.80178L19.2118 5.80155L10.2671 0.595639L10.2671 0.595636L10.2663 0.595197C10.1856 0.549204 10.0945 0.525 10.0017 0.525C9.90899 0.525 9.81785 0.549204 9.73719 0.595198L9.73719 0.595194L9.73643 0.595639L0.79196 5.80138C0.791904 5.80141 0.791847 5.80144 0.791791 5.80147C0.710788 5.84827 0.643546 5.91574 0.596813 5.99705M3.20631 8.13351L0.788159 9.54291L0.787817 9.54311C0.707732 9.59021 0.641374 9.65758 0.59529 9.73848C0.549214 9.81937 0.525 9.91098 0.525 10.0041C0.525 10.0973 0.549216 10.1889 0.59529 10.2698C0.641361 10.3507 0.707717 10.4181 0.78785 10.4652L0.78816 10.4654L3.20631 11.8747L0.79196 13.2805C0.791878 13.2806 0.791796 13.2806 0.791713 13.2807C0.710745 13.3275 0.643532 13.3949 0.596813 13.4762C0.596809 13.4762 0.596804 13.4762 0.5968 13.4762L0.683502 13.5261L3.20631 8.13351ZM0.596813 5.99705L0.683502 6.0469L0.5968 5.99707C0.596804 5.99707 0.596809 5.99706 0.596813 5.99705ZM10.2461 11.9371L10.2465 11.9369L15.701 8.75226L17.8816 10.0047L9.99659 14.598L2.11063 10.0042L4.26153 8.75246L9.71505 11.9365C9.71517 11.9366 9.71529 11.9366 9.71541 11.9367C9.79529 11.984 9.88625 12.0092 9.97906 12.0095L9.98016 12.0095C10.0736 12.0088 10.1651 11.9838 10.2461 11.9371ZM9.99659 10.8567L2.11061 6.26284L9.99659 1.67237L17.8826 6.26284L9.99659 10.8567ZM9.99653 18.3359L2.10956 13.7448L4.26191 12.4732L9.71494 15.6569C9.71507 15.657 9.71519 15.6571 9.71532 15.6572C9.79526 15.7046 9.88644 15.7298 9.97938 15.7298C10.0723 15.7298 10.1634 15.7047 10.2434 15.6572C10.2435 15.6571 10.2437 15.657 10.2438 15.6569L15.714 12.4731L17.8666 13.7449L9.99653 18.3359Z" fill="#2AA665" stroke="#2AA665" stroke-width="0.2"/>
</svg>
