<svg width="32" height="32" viewBox="0 0 32 32" fill="none" xmlns="http://www.w3.org/2000/svg">
<path d="M30.0855 15.1203L25.9891 12.1222L25.8054 10.6631C24.9662 3.99726 18.8604 -0.742883 12.1944 0.0962746C5.5133 0.937494 0.786279 7.02516 1.62775 13.7072C2.15036 17.8581 4.76362 21.4311 8.51908 23.2046L7.36801 28.9761C7.26735 29.481 7.5927 29.9726 8.09682 30.0771L17.2741 31.9804C17.5259 32.0327 17.7869 31.9789 17.9968 31.8341C18.2076 31.6886 18.3497 31.4633 18.39 31.2104L19.2013 26.1265H26.8371C27.1094 26.1265 27.3683 26.008 27.5464 25.8019C27.7244 25.5957 27.804 25.3224 27.7643 25.0529L26.8284 18.6871L30.0316 16.6697C30.2942 16.5043 30.458 16.2195 30.4688 15.9093C30.4794 15.5991 30.336 15.3036 30.0855 15.1203ZM25.3127 17.4264C24.9986 17.6242 24.8309 17.9886 24.8849 18.3558L25.7519 24.2521H18.4017C17.9411 24.2521 17.5487 24.5868 17.4761 25.0416L16.6936 29.9457L9.38823 28.4306L10.5054 22.8295C10.5939 22.3854 10.3523 21.9414 9.93122 21.7747C6.42675 20.3873 3.95771 17.2063 3.48758 13.4731C2.7757 7.81983 6.77448 2.66798 12.4286 1.9561C18.0692 1.24598 23.2355 5.257 23.9456 10.8973L24.1798 12.7571C24.212 13.0128 24.3482 13.244 24.5562 13.3963L27.8656 15.8185L25.3127 17.4264Z" fill="#2aa665"/>
<path d="M13.7153 3.63235C11.1313 3.63235 9.02905 5.73462 9.02905 8.31864C9.02905 8.83625 9.44869 9.2559 9.96631 9.2559C10.4839 9.2559 10.9036 8.83625 10.9036 8.31864C10.9036 6.76823 12.1649 5.50687 13.7153 5.50687C15.2657 5.50687 16.5271 6.76823 16.5271 8.31864C16.5271 9.45797 15.8475 10.4773 14.7959 10.9156C13.5701 11.4264 12.7781 12.6144 12.7781 13.9422C12.7781 14.4598 13.1977 14.8794 13.7153 14.8794C14.2329 14.8794 14.6526 14.4598 14.6526 13.9422C14.6526 13.3735 14.9919 12.8646 15.5169 12.6458C17.2693 11.9156 18.4016 10.217 18.4016 8.31864C18.4017 5.73462 16.2993 3.63235 13.7153 3.63235Z" fill="#2aa665"/>
<path d="M13.7153 18.6197C14.233 18.6197 14.6526 18.2001 14.6526 17.6825C14.6526 17.1648 14.233 16.7452 13.7153 16.7452C13.1977 16.7452 12.7781 17.1648 12.7781 17.6825C12.7781 18.2001 13.1977 18.6197 13.7153 18.6197Z" fill="#2aa665"/>
</svg>
