<svg width="32" height="32" viewBox="0 0 32 32" fill="none" xmlns="http://www.w3.org/2000/svg">
<g clip-path="url(#clip0)">
<path d="M25.7479 1.19882H4.51897C2.02719 1.19882 0 3.22601 0 5.71779V26.5159C0 27.071 0.450081 27.5211 1.00521 27.5211C1.56033 27.5211 2.01041 27.071 2.01041 26.5159C2.01041 25.1327 3.13574 24.0073 4.51897 24.0073H27.6696C28.2248 24.0073 28.6748 23.5573 28.6748 23.0021V4.12573C28.6748 2.51181 27.3619 1.19882 25.7479 1.19882Z" fill="#85E2B2"/>
<path d="M29.073 7.99265H4.51897C3.13574 7.99265 2.01041 6.86732 2.01041 5.48409C2.01041 4.92896 1.56033 4.47888 1.00521 4.47888C0.450081 4.47888 0 4.92896 0 5.48409V26.2822C0 28.774 2.02719 30.8012 4.51897 30.8012H29.073C30.687 30.8012 31.9999 29.4882 31.9999 27.8743V10.9196C32 9.30563 30.687 7.99265 29.073 7.99265Z" fill="white"/>
<path d="M25.7481 1.19882H4.51912C2.80034 1.19882 1.30289 2.16357 0.539062 3.57984C2.82252 4.01717 5.64225 4.26998 9.03834 4.09658C17.3356 3.67301 23.848 3.47342 28.675 4.31722V4.12573C28.675 2.51181 27.362 1.19882 25.7481 1.19882Z" fill="#85E2B2"/>
<path d="M29.073 7.99265H4.51897C3.13574 7.99265 2.01041 6.86732 2.01041 5.48409C2.01041 4.92896 1.56033 4.47888 1.00521 4.47888C0.450081 4.47888 0 4.92896 0 5.48409V23.7052C2.99457 24.5679 6.33626 24.5195 9.56014 22.3602C15.9545 18.0775 25.7223 20.5752 32 23.3433V10.9196C32 9.30564 30.687 7.99265 29.073 7.99265Z" fill="white"/>
<path d="M29.073 7.99264H4.51897C3.13574 7.99264 2.01041 6.86731 2.01041 5.48409C2.01041 4.92896 1.56033 4.47888 1.00521 4.47888C0.450081 4.47888 0 4.92896 0 5.48409V10.3387C2.23533 10.0104 5.46192 10.3541 9.56014 12.9314C15.7773 16.8412 26.2194 17.9814 32 15.8961V10.9196C32 9.30563 30.687 7.99264 29.073 7.99264Z" fill="white"/>
<path d="M30.9949 14.9948H22.4249C19.8487 14.9948 17.7527 17.0907 17.7527 19.667C17.7527 22.2433 19.8487 24.3392 22.4249 24.3392H30.9948C31.55 24.3392 32 23.8891 32 23.334V16C32.0001 15.4448 31.55 14.9948 30.9949 14.9948Z" fill="#D6F5E5"/>
<path d="M22.7959 21.1238C23.6005 21.1238 24.2527 20.4716 24.2527 19.667C24.2527 18.8624 23.6005 18.2102 22.7959 18.2102C21.9913 18.2102 21.3391 18.8624 21.3391 19.667C21.3391 20.4716 21.9913 21.1238 22.7959 21.1238Z" fill="#85E2B2"/>
</g>
<defs>
<clipPath id="clip0">
<rect width="32" height="32" fill="white"/>
</clipPath>
</defs>
</svg>
