<svg width="32" height="32" viewBox="0 0 32 32" fill="none" xmlns="http://www.w3.org/2000/svg">
<path d="M27.3848 17.0727H24.1365C21.5916 17.0727 19.5073 19.1479 19.5073 21.6929V26.7872C19.5073 28.3142 20.7634 29.565 22.2904 29.565H29.2309C30.7579 29.565 31.9996 28.3142 31.9996 26.7872V21.6929C31.9996 19.1479 29.9297 17.0727 27.3848 17.0727Z" fill="#85E2B2"/>
<path d="M25.7606 17.0726H24.1365C21.5916 17.0726 19.5073 19.1478 19.5073 21.6928V26.7871C19.5073 28.3141 20.7634 29.5649 22.2904 29.5649H25.7606V17.0726Z" fill="white"/>
<path d="M25.7609 7.60858C23.472 7.60858 21.6099 9.47077 21.6099 11.7596C21.6099 14.0486 23.472 15.9108 25.7609 15.9108C28.0499 15.9108 29.912 14.0486 29.912 11.7596C29.912 9.47083 28.0499 7.60858 25.7609 7.60858Z" fill="#85E2B2"/>
<path d="M25.7609 7.60858C23.472 7.60858 21.6099 9.47077 21.6099 11.7596C21.6099 14.0486 23.472 15.9108 25.7609 15.9108V7.60858Z" fill="white"/>
<path d="M7.87738 17.0727H4.62919C2.08425 17.0727 0 19.1479 0 21.6928V26.7872C0 28.3141 1.25606 29.5649 2.78306 29.5649H9.72356C11.2506 29.5649 12.4923 28.3141 12.4923 26.7872V21.6928C12.4923 19.1479 10.4224 17.0727 7.87738 17.0727Z" fill="#85E2B2"/>
<path d="M6.25331 17.0726H4.62919C2.08425 17.0726 0 19.1478 0 21.6928V26.7871C0 28.3141 1.25606 29.5649 2.78306 29.5649H6.25331C6.25331 29.5649 6.25331 17.0726 6.25331 17.0726Z" fill="white"/>
<path d="M18.826 14.6729H13.1732C10.6283 14.6729 8.55786 16.7433 8.55786 19.2882V28.6333C8.55786 29.1431 8.97117 29.5563 9.48092 29.5563H22.5183C23.0281 29.5563 23.4414 29.1431 23.4414 28.6333V19.2882C23.4414 16.7433 21.3709 14.6729 18.826 14.6729Z" fill="#D6F5E5"/>
<path d="M16.0308 14.6729H13.1732C10.6283 14.6729 8.55786 16.7433 8.55786 19.2882V28.6333C8.55786 29.1431 8.97117 29.5563 9.48092 29.5563H16.0308V14.6729Z" fill="white"/>
<path d="M15.9998 2.43503C12.9392 2.43503 10.4492 4.92503 10.4492 7.98565C10.4492 11.0463 12.9392 13.5363 15.9998 13.5363C19.0605 13.5363 21.5505 11.0463 21.5505 7.98565C21.5505 4.92503 19.0605 2.43503 15.9998 2.43503Z" fill="#D6F5E5"/>
<path d="M15.9998 2.43503C12.9392 2.43503 10.4492 4.92503 10.4492 7.98565C10.4492 11.0463 12.9392 13.5363 15.9998 13.5363V2.43503Z" fill="white"/>
<path d="M6.25336 7.60858C3.96442 7.60858 2.10229 9.47077 2.10229 11.7596C2.10229 14.0486 3.96442 15.9108 6.25336 15.9108C8.5423 15.9108 10.4044 14.0486 10.4044 11.7596C10.4044 9.47083 8.5423 7.60858 6.25336 7.60858Z" fill="#85E2B2"/>
<path d="M6.25336 7.60858C3.96442 7.60858 2.10229 9.47077 2.10229 11.7596C2.10229 14.0486 3.96442 15.9108 6.25336 15.9108V7.60858Z" fill="white"/>
</svg>
