<svg width="32" height="32" viewBox="0 0 32 32" fill="none" xmlns="http://www.w3.org/2000/svg">
<g clip-path="url(#clip0)">
<path d="M25.6685 32.0001H20.3354C19.7834 32.0001 19.3354 31.5521 19.3354 31.0001V22.0004C19.3354 21.8163 19.186 21.6669 19.0022 21.6669H13.0023C12.8183 21.6669 12.6688 21.8163 12.6688 22.0004V31.0001C12.6688 31.5521 12.2209 32.0001 11.6689 32.0001H6.33576C5.04918 32.0001 4.00258 30.9533 4.00258 29.6667V17.3338H1.66914C0.750712 17.3338 0.00268555 16.5857 0.00268555 15.667C0.00268555 15.2259 0.182612 14.7938 0.49608 14.4806L15.3101 0.278304C15.6902 -0.087165 16.2915 -0.0937566 16.6795 0.264876L21.3354 4.55797V2.33416C21.3354 1.78217 21.7833 1.33418 22.3353 1.33418H27.0019C27.5539 1.33418 28.0019 1.78217 28.0019 2.33416V11.0339L31.5018 14.4737C31.8219 14.7938 32.0018 15.2259 32.0018 15.667C32.0018 16.5857 31.2538 17.3338 30.3351 17.3338H28.0019V29.6667C28.0019 30.9533 26.9553 32.0001 25.6685 32.0001ZM21.3354 30.0002H25.6685C25.8499 30.0002 26.002 29.8481 26.002 29.6667V16.3338C26.002 15.7818 26.45 15.3338 27.0019 15.3338H29.5246L26.302 12.1671C26.1099 11.9792 26.002 11.7218 26.002 11.4538V3.33413H23.3353V6.84063C23.3353 7.23808 23.1007 7.59671 22.7367 7.75662C22.3741 7.91799 21.9501 7.84475 21.6581 7.57523L16.0154 2.37273L2.49456 15.3338H5.00255C5.55453 15.3338 6.00252 15.7818 6.00252 16.3338V29.6667C6.00252 29.8481 6.15437 30.0002 6.33576 30.0002H10.6689V22.0004C10.6689 20.7135 11.7157 19.6669 13.0023 19.6669H19.0022C20.2887 19.6669 21.3354 20.7135 21.3354 22.0004V30.0002Z" fill="#2aa665"/>
</g>
<defs>
<clipPath id="clip0">
<rect width="32" height="32" fill="white"/>
</clipPath>
</defs>
</svg>
