<svg width="32" height="32" viewBox="0 0 32 32" fill="none" xmlns="http://www.w3.org/2000/svg">
<path d="M21.625 17V9.375C21.625 6.27319 19.1018 3.75 16 3.75C12.8982 3.75 10.375 6.27319 10.375 9.375V17H6.625V9.375C6.625 4.20594 10.8309 0 16 0C21.1691 0 25.375 4.20594 25.375 9.375V17H21.625Z" fill="white"/>
<path d="M21.625 9.375V17H25.375V9.375C25.375 4.20594 21.1691 0 16 0V3.75C19.1018 3.75 21.625 6.27319 21.625 9.375Z" fill="#D6F5E5"/>
<path d="M25.375 32H6.625C5.07413 32 3.8125 30.7384 3.8125 29.1875V17.9375C3.8125 16.3866 5.07413 15.125 6.625 15.125H25.375C26.9259 15.125 28.1875 16.3866 28.1875 17.9375V29.1875C28.1875 30.7384 26.9259 32 25.375 32Z" fill="white"/>
<path d="M25.375 15.125H16V32H25.375C26.9259 32 28.1875 30.7384 28.1875 29.1875V17.9375C28.1875 16.3866 26.9259 15.125 25.375 15.125Z" fill="#D6F5E5"/>
<path d="M18.8125 21.6875C18.8125 20.1366 17.5509 18.875 16 18.875C14.4491 18.875 13.1875 20.1366 13.1875 21.6875C13.1875 22.9088 13.9735 23.9397 15.0625 24.3279V27.3125C15.0625 27.8307 15.4818 28.25 16 28.25C16.5182 28.25 16.9375 27.8307 16.9375 27.3125V24.3279C18.0265 23.9397 18.8125 22.9088 18.8125 21.6875Z" fill="#85E2B2"/>
<path d="M16.9375 27.3125V24.3279C18.0265 23.9397 18.8125 22.9088 18.8125 21.6875C18.8125 20.1366 17.5509 18.875 16 18.875V28.25C16.5182 28.25 16.9375 27.8307 16.9375 27.3125Z" fill="#85E2B2"/>
</svg>
