<svg width="32" height="32" viewBox="0 0 32 32" fill="none" xmlns="http://www.w3.org/2000/svg">
<path d="M27 1.33325H22.3333C21.7812 1.33325 21.3333 1.78125 21.3333 2.33325V6.84009C21.3333 7.10669 21.4399 7.36401 21.6306 7.55078L26.2974 12.1641C26.488 12.3533 26.7427 12.4534 27 12.4534C27.1306 12.4534 27.2612 12.428 27.3853 12.376C27.7573 12.2214 28 11.8574 28 11.4534V2.33325C28 1.78125 27.552 1.33325 27 1.33325Z" fill="#D6F5E5"/>
<path d="M32 15.6682C32 16.5881 31.2534 17.3347 30.3333 17.3347H28L16 5.66821L4 17.3347H1.66675C0.746582 17.3347 0 16.5881 0 15.6682C0 15.228 0.17334 14.7881 0.493408 14.4814L15.3066 0.281494C15.6934 -0.0917969 16.3066 -0.0917969 16.6934 0.281494L31.4934 14.468C31.8267 14.7881 32 15.228 32 15.6682Z" fill="#85E2B2"/>
<path d="M16 5.66675L4 17.3333V29.3333C4 30.8 5.19995 32 6.66675 32H25.3333C26.8 32 28 30.8 28 29.3333V17.3333L16 5.66675Z" fill="white"/>
<path d="M12 21.3333H20V32H12V21.3333Z" fill="#D6F5E5"/>
</svg>
