<svg width="32" height="32" viewBox="0 0 32 32" fill="none" xmlns="http://www.w3.org/2000/svg">
<g clip-path="url(#clip0)">
<path d="M29.0733 7.99314H28.6751V4.12649C28.6751 2.51273 27.3622 1.19977 25.7484 1.19977H4.52084C2.17835 1.19977 0.246975 2.9915 0.0240223 5.27637C-0.0100268 5.43782 0.0020977 3.99921 0.0020977 26.2815C0.0020977 28.7731 2.02915 30.8002 4.52077 30.8002H29.0732C30.6871 30.8002 32 29.4873 32 27.8735V10.9199C32 9.30611 30.6871 7.99314 29.0733 7.99314ZM4.52084 3.21011H25.7484C26.2538 3.21011 26.6649 3.62122 26.6649 4.12655V7.99321H4.52084C3.1769 7.99321 2.07671 6.93071 2.0154 5.60166C2.07665 4.27255 3.17684 3.21011 4.52084 3.21011ZM29.0733 28.7899H4.52084C3.1377 28.7899 2.01244 27.6646 2.01244 26.2815V9.24165C2.73055 9.72268 3.59347 10.0034 4.52084 10.0034H29.0733C29.5786 10.0034 29.9897 10.4145 29.9897 10.9199V14.9948H22.4255C19.8494 14.9948 17.7536 17.0906 17.7536 19.6667C17.7536 22.2428 19.8494 24.3386 22.4255 24.3386H29.9897V27.8735C29.9897 28.3788 29.5786 28.7899 29.0733 28.7899ZM29.9897 22.3284H22.4255C20.9579 22.3284 19.7639 21.1344 19.7639 19.6668C19.7639 18.1992 20.9579 17.0052 22.4255 17.0052H29.9897V22.3284Z" fill="#2aa665"/>
<path d="M22.7965 21.1235C23.6011 21.1235 24.2533 20.4713 24.2533 19.6668C24.2533 18.8623 23.6011 18.2101 22.7965 18.2101C21.992 18.2101 21.3398 18.8623 21.3398 19.6668C21.3398 20.4713 21.992 21.1235 22.7965 21.1235Z" fill="#2aa665"/>
</g>
<defs>
<clipPath id="clip0">
<rect width="32" height="32" fill="white"/>
</clipPath>
</defs>
</svg>
